<?xml version="1.0" encoding="utf-8"?>
<!-- Generator: Adobe Illustrator 17.1.0, SVG Export Plug-In . SVG Version: 6.00 Build 0)  -->
<!DOCTYPE svg PUBLIC "-//W3C//DTD SVG 1.1//EN" "http://www.w3.org/Graphics/SVG/1.1/DTD/svg11.dtd">
<svg version="1.1" id="Calque_1" xmlns="http://www.w3.org/2000/svg" xmlns:xlink="http://www.w3.org/1999/xlink" x="0px" y="0px"
	 viewBox="0 0 77 39.2" enable-background="new 0 0 77 39.2" xml:space="preserve">
<g>
	<g>
		<path fill="#15B1D3" d="M73,0H25.6l25,30.8c0.6,0.7,1.5,1.2,2.6,1.2c0.8,0,1.6-0.3,2.2-0.8c0.3-0.3,0.6-0.6,0.8-1L75.6,5.6
			c0.5-0.6,0.8-1.4,0.8-2.2C76.4,1.5,74.9,0,73,0z"/>
		<path fill="#15B1D3" d="M23.9,0L23.9,0L23.9,0z"/>
	</g>
	<path fill="#15B1D3" d="M21.8,0c0,0-1.1,0-1.6,0L3.1,0l0,0C1.4,0.2,0,1.6,0,3.4C0,4.2,0.3,5,0.9,5.6l25.5,32
		c0.6,0.9,1.6,1.6,2.8,1.6c1.2,0,2.3-0.6,2.9-1.6L42,24.9L21.8,0z"/>
</g>
</svg>
